<svg
  xmlns="http://www.w3.org/2000/svg"
  width="512"
  height="200"
  viewBox="0 150 512 200"
  x="0"
  y="0"
  xmlns:xlink="http://www.w3.org/1999/xlink"
  overflow="hidden"
>
  <g transform="matrix(1, 0, 0, 1, 0, 0)">
    <g
      transform="matrix(1.148280382156372, 0, 0, 1.148280382156372, -33.76608657836914, -37.959774017333984)"
    >
      <g
        transform="matrix(0.8765192031860352, 0, 0, 0.8765192031860352, -96.65245819091797, 63.0959587097168)"
      >
        <path
          fill="#78c0ff"
          transform="matrix(0.2454732060432434, 0.14752723276615143, -0.09198401123285294, 0.1531241536140442, 275.15728759765625, 195.073974609375)"
          data-type="polygon"
          d="M71.7 0L0 184.34L71.7 368.69L143.41 184.34L71.7 0Z"
        ></path>
        <path
          fill="#96ceff"
          transform="matrix(0.2454732060432434, 0.14752723276615143, -0.09198401123285294, 0.1531241536140442, 239.87240600585938, 215.75820922851562)"
          data-type="polygon"
          d="M71.7 0L0 184.34L71.7 368.69L143.41 184.34L71.7 0Z"
        ></path>
        <path
          fill="#4c96d7"
          transform="matrix(0.2454732060432434, 0.14752723276615143, -0.09198401123285294, 0.1531241536140442, 310.442138671875, 176.82318115234375)"
          data-type="polygon"
          d="M71.7 0L0 184.34L71.7 368.69L143.41 184.34L71.7 0Z"
        ></path>
        <path
          fill="#2f7bbd"
          transform="matrix(0.2454732060432434, 0.14752723276615143, -0.09198401123285294, 0.1531241536140442, 273.9405517578125, 157.9640350341797)"
          data-type="polygon"
          d="M71.7 0L0 184.34L71.7 368.69L143.41 184.34L71.7 0Z"
        ></path>
        <path
          fill="#5eb4ff"
          d="M97.622,30.671c-0.001-0.004-0.003-0.008-0.004-0.012c-0.003-0.012-0.011-0.022-0.015-0.034   c-0.002-0.007-0.006-0.014-0.009-0.021c-0.021-0.06-0.042-0.119-0.074-0.174c-0.014-0.024-0.034-0.045-0.051-0.068   c-0.002-0.003-0.004-0.006-0.007-0.009c-0.016-0.022-0.03-0.044-0.049-0.065c-0.018-0.021-0.033-0.044-0.053-0.063   c-0.023-0.023-0.053-0.041-0.079-0.062c-0.037-0.03-0.071-0.064-0.113-0.089c-0.006-0.003-0.013-0.004-0.019-0.008   c-0.005-0.003-0.009-0.007-0.014-0.01L73.948,17.412c-0.075-0.055-0.157-0.101-0.245-0.133L50.477,4.624   c-0.299-0.163-0.659-0.163-0.957,0L26.193,17.337c-0.321,0.175-0.521,0.512-0.521,0.878v24.838L2.863,55.48   c-0.033,0.02-0.06,0.045-0.09,0.066c-0.027,0.02-0.055,0.037-0.08,0.059c-0.088,0.076-0.164,0.164-0.22,0.264   c-0.003,0.004-0.007,0.008-0.01,0.012c-0.006,0.012-0.006,0.025-0.012,0.037c-0.045,0.092-0.074,0.189-0.09,0.291   c-0.005,0.031-0.01,0.059-0.012,0.09c-0.002,0.02-0.009,0.039-0.009,0.061v25.426c0,0.367,0.2,0.703,0.521,0.879l23.33,12.713   c0.047,0.025,0.097,0.039,0.146,0.057c0.027,0.01,0.052,0.023,0.079,0.031c0.084,0.021,0.168,0.033,0.253,0.033l0,0h0.001   c0.085,0,0.17-0.012,0.252-0.033c0.003,0,0.006,0,0.009-0.002c0.019-0.004,0.035-0.016,0.053-0.021   c0.01-0.004,0.019-0.008,0.028-0.012c0.046-0.018,0.093-0.029,0.137-0.053l69.986-38.141c0.321-0.174,0.521-0.512,0.521-0.877   V30.934C97.658,30.844,97.646,30.755,97.622,30.671z M50.998,31.527l21.334-11.628v23.154L50.998,54.676V31.527z M50.998,56.953   L72.332,45.33v23.146L50.998,80.104V56.953z M27.672,69.666l21.326-11.623v23.15L27.672,92.814V69.666z M95.658,55.766   L74.332,67.387V44.24l21.326-11.623V55.766z"
          transform="matrix(1.5143901109695435, 0, 0, 1.5143901109695435, 182.0546417236328, 139.9714813232422)"
        ></path>
      </g>
      <path
        text=" sercet"
        text-anchor="middle"
        font-size="100"
        letter-spacing="0"
        side="left"
        offset="0.5"
        dx="0"
        dy="0"
        space="preserve"
        href=""
        font-family="Ubuntu"
        font-scale="contain"
        transform="matrix(0.5674630403518677, 0, 0, 0.5674630403518677, 300.08721923828125, 274.9248962402344)"
        x="0"
        y="0"
        fill="#042440"
        data-fl-textpath=""
        font-weight="700"
        font-style="normal"
        d="M-115.1-10.7L-115.1-10.7Q-110.99999999999999-10.7 -109.29999999999998-11.5Q-107.6-12.3 -107.6-14.6L-107.6-14.6Q-107.6-16.4 -109.79999999999998-17.75Q-111.99999999999999-19.1 -116.49999999999999-20.8L-116.49999999999999-20.8Q-119.99999999999999-22.1 -122.85-23.5Q-125.69999999999999-24.9 -127.69999999999999-26.85Q-129.7-28.8 -130.79999999999998-31.5Q-131.89999999999998-34.2 -131.89999999999998-38L-131.89999999999998-38Q-131.89999999999998-45.4 -126.39999999999999-49.7Q-120.89999999999999-54 -111.29999999999998-54L-111.29999999999998-54Q-106.49999999999999-54 -102.1-53.15Q-97.69999999999999-52.3 -95.1-51.3L-95.1-51.3L-97.69999999999999-39.7Q-100.29999999999998-40.6 -103.35-41.3Q-106.39999999999999-42 -110.19999999999999-42L-110.19999999999999-42Q-117.19999999999999-42 -117.19999999999999-38.1L-117.19999999999999-38.1Q-117.19999999999999-37.2 -116.89999999999999-36.5Q-116.6-35.8 -115.69999999999999-35.15Q-114.79999999999998-34.5 -113.24999999999999-33.75Q-111.69999999999999-33 -109.29999999999998-32.1L-109.29999999999998-32.1Q-104.39999999999999-30.3 -101.19999999999999-28.55Q-97.99999999999999-26.8 -96.14999999999999-24.75Q-94.29999999999998-22.7 -93.54999999999998-20.2Q-92.79999999999998-17.7 -92.79999999999998-14.4L-92.79999999999998-14.4Q-92.79999999999998-6.6 -98.64999999999999-2.6Q-104.49999999999999 1.4 -115.19999999999999 1.4L-115.19999999999999 1.4Q-122.19999999999999 1.4 -126.85 0.2Q-131.5-1 -133.29999999999998-1.8L-133.29999999999998-1.8L-130.79999999999998-13.9Q-126.99999999999999-12.4 -122.99999999999999-11.55Q-118.99999999999999-10.7 -115.1-10.7ZM-84.19999999999999-25.9L-84.19999999999999-25.9Q-84.19999999999999-32.9 -82.04999999999998-38.15Q-79.89999999999999-43.4 -76.39999999999999-46.9Q-72.89999999999999-50.4 -68.35-52.2Q-63.79999999999999-54 -58.999999999999986-54L-58.999999999999986-54Q-47.79999999999999-54 -41.29999999999999-47.15Q-34.79999999999999-40.3 -34.79999999999999-27L-34.79999999999999-27Q-34.79999999999999-25.7 -34.89999999999999-24.15Q-34.999999999999986-22.6 -35.09999999999999-21.4L-35.09999999999999-21.4L-68.89999999999999-21.4Q-68.39999999999999-16.8 -64.6-14.1Q-60.79999999999999-11.4 -54.39999999999999-11.4L-54.39999999999999-11.4Q-50.29999999999999-11.4 -46.34999999999999-12.15Q-42.39999999999999-12.9 -39.89999999999999-14L-39.89999999999999-14L-37.89999999999999-1.9Q-39.09999999999999-1.3 -41.09999999999999-0.7Q-43.09999999999999-0.1 -45.54999999999999 0.35Q-47.999999999999986 0.8 -50.79999999999999 1.1Q-53.59999999999999 1.4 -56.39999999999999 1.4L-56.39999999999999 1.4Q-63.499999999999986 1.4 -68.74999999999999-0.7Q-73.99999999999999-2.8 -77.44999999999999-6.45Q-80.89999999999999-10.1 -82.54999999999998-15.1Q-84.19999999999999-20.1 -84.19999999999999-25.9ZM-68.89999999999999-31.6L-49.19999999999999-31.6Q-49.29999999999999-33.5 -49.84999999999999-35.3Q-50.39999999999999-37.1 -51.54999999999999-38.5Q-52.69999999999999-39.9 -54.44999999999999-40.8Q-56.19999999999999-41.7 -58.79999999999999-41.7L-58.79999999999999-41.7Q-61.29999999999999-41.7 -63.09999999999999-40.85Q-64.89999999999999-40 -66.1-38.6Q-67.29999999999998-37.2 -67.94999999999999-35.35Q-68.6-33.5 -68.89999999999999-31.6L-68.89999999999999-31.6ZM 10.90000000000002-51.7L 8.40000000000002-39.4Q 6.40000000000002-39.9  3.700000000000017-40.45Q 1.0000000000000178-41 -2.0999999999999837-41L-2.0999999999999837-41Q-3.4999999999999822-41 -5.4499999999999815-40.75Q-7.399999999999984-40.5 -8.399999999999984-40.2L-8.399999999999984-40.2L-8.399999999999984 0L-23.299999999999983 0L-23.299999999999983-49.8Q-19.299999999999983-51.2 -13.849999999999984-52.45Q-8.399999999999984-53.7 -1.6999999999999815-53.7L-1.6999999999999815-53.7Q-0.49999999999998224-53.7  1.200000000000017-53.55Q 2.90000000000002-53.4  4.600000000000016-53.15Q 6.3000000000000185-52.9  8.000000000000014-52.55Q 9.700000000000017-52.2  10.90000000000002-51.7L 10.90000000000002-51.7ZM 15.40000000000002-26.3L 15.40000000000002-26.3Q 15.40000000000002-32  17.25000000000002-37.05Q 19.10000000000002-42.1  22.60000000000002-45.85Q 26.10000000000002-49.6  31.10000000000002-51.8Q 36.10000000000002-54  42.50000000000002-54L 42.50000000000002-54Q 46.70000000000002-54  50.20000000000002-53.25Q 53.70000000000002-52.5  57.00000000000002-51.1L 57.00000000000002-51.1L 53.90000000000002-39.2Q 51.80000000000002-40  49.30000000000002-40.6Q 46.80000000000002-41.2  43.70000000000002-41.2L 43.70000000000002-41.2Q 37.10000000000002-41.2  33.85000000000002-37.1Q 30.60000000000002-33  30.60000000000002-26.3L 30.60000000000002-26.3Q 30.60000000000002-19.2  33.65000000000002-15.3Q 36.70000000000002-11.4  44.30000000000002-11.4L 44.30000000000002-11.4Q 47.00000000000002-11.4  50.10000000000002-11.9Q 53.20000000000002-12.4  55.80000000000002-13.5L 55.80000000000002-13.5L 57.90000000000002-1.3Q 55.30000000000002-0.2  51.40000000000002 0.6Q 47.50000000000002 1.4  42.80000000000002 1.4L 42.80000000000002 1.4Q 35.60000000000002 1.4  30.40000000000002-0.75Q 25.20000000000002-2.9  21.85000000000002-6.6Q 18.50000000000002-10.3  16.95000000000002-15.35Q 15.40000000000002-20.4  15.40000000000002-26.3ZM 62.90000000000002-25.9L 62.90000000000002-25.9Q 62.90000000000002-32.9  65.05000000000003-38.15Q 67.20000000000002-43.4  70.70000000000002-46.9Q 74.20000000000002-50.4  78.75000000000003-52.2Q 83.30000000000001-54  88.10000000000002-54L 88.10000000000002-54Q 99.30000000000001-54  105.80000000000001-47.15Q 112.30000000000001-40.3  112.30000000000001-27L 112.30000000000001-27Q 112.30000000000001-25.7  112.20000000000002-24.15Q 112.10000000000002-22.6  112.00000000000003-21.4L 112.00000000000003-21.4L 78.20000000000002-21.4Q 78.70000000000002-16.8  82.50000000000003-14.1Q 86.30000000000001-11.4  92.70000000000002-11.4L 92.70000000000002-11.4Q 96.80000000000001-11.4  100.75000000000003-12.15Q 104.70000000000002-12.9  107.20000000000002-14L 107.20000000000002-14L 109.20000000000002-1.9Q 108.00000000000003-1.3  106.00000000000003-0.7Q 104.00000000000003-0.1  101.55000000000001 0.35Q 99.10000000000002 0.8  96.30000000000001 1.1Q 93.50000000000003 1.4  90.70000000000002 1.4L 90.70000000000002 1.4Q 83.60000000000002 1.4  78.35000000000002-0.7Q 73.10000000000002-2.8  69.65000000000002-6.45Q 66.20000000000002-10.1  64.55000000000003-15.1Q 62.90000000000002-20.1  62.90000000000002-25.9ZM 78.20000000000002-31.6L 97.90000000000002-31.6Q 97.80000000000001-33.5  97.25000000000003-35.3Q 96.70000000000002-37.1  95.55000000000001-38.5Q 94.40000000000002-39.9  92.65000000000002-40.8Q 90.90000000000002-41.7  88.30000000000001-41.7L 88.30000000000001-41.7Q 85.80000000000001-41.7  84.00000000000003-40.85Q 82.20000000000002-40  81.00000000000003-38.6Q 79.80000000000001-37.2  79.15000000000002-35.35Q 78.50000000000003-33.5  78.20000000000002-31.6L 78.20000000000002-31.6ZM 123.30000000000003-21.5L 123.30000000000003-65.7L 138.20000000000002-68.1L 138.20000000000002-52.6L 156.10000000000002-52.6L 156.10000000000002-40.2L 138.20000000000002-40.2L 138.20000000000002-21.7Q 138.20000000000002-17  139.85000000000002-14.2Q 141.50000000000003-11.4  146.50000000000003-11.4L 146.50000000000003-11.4Q 148.90000000000003-11.4  151.45000000000002-11.85Q 154.00000000000003-12.3  156.10000000000002-13.1L 156.10000000000002-13.1L 158.20000000000002-1.5Q 155.50000000000003-0.4  152.20000000000002 0.4Q 148.90000000000003 1.2  144.10000000000002 1.2L 144.10000000000002 1.2Q 138.00000000000003 1.2  134.00000000000003-0.45Q 130.00000000000003-2.1  127.60000000000002-5.05Q 125.20000000000003-8  124.25000000000003-12.2Q 123.30000000000003-16.4  123.30000000000003-21.5L 123.30000000000003-21.5Z"
      ></path>
    </g>
    <path
      text=".js"
      fill="#000000"
      space="preserve"
      text-anchor="middle"
      offset="0.5"
      font-scale="contain"
      font-size="48"
      font-family="Ubuntu"
      transform="matrix(1.3735861778259277, 0, 0, 1.3735861778259277, 446.3603210449219, 277.0970153808594)"
      font-weight="400"
      font-style="normal"
      data-fl-textpath=""
      d="M-13.56-2.59L-13.56-2.59Q-13.56-1.3 -14.42-0.34Q-15.29 0.62 -16.78 0.62L-16.78 0.62Q-18.259999999999998 0.62 -19.13-0.34Q-19.99-1.3 -19.99-2.59L-19.99-2.59Q-19.99-3.89 -19.13-4.85Q-18.259999999999998-5.81 -16.78-5.81L-16.78-5.81Q-15.29-5.81 -14.42-4.85Q-13.56-3.89 -13.56-2.59ZM-11.112 8.98L-11.112 8.98Q-11.692 8.98-12.602 8.83Q-13.512 8.69-14.132 8.45L-14.132 8.45L-13.562 4.8Q-13.082 4.94-12.452 5.04Q-11.832 5.14-11.302 5.14L-11.302 5.14Q-9.001999999999999 5.14 -8.012 3.72Q-7.032 2.3 -7.032-0.43L-7.032-0.43L-7.032-24.96L-2.571999999999999-24.96L-2.571999999999999-0.48Q-2.571999999999999 4.32 -4.752 6.65Q-6.932 8.98-11.112 8.98ZM-4.822-29.47L-4.822-29.47Q-6.022-29.47 -6.862-30.26Q-7.702-31.06 -7.702-32.4L-7.702-32.4Q-7.702-33.74 -6.862-34.54Q-6.022-35.33 -4.822-35.33L-4.822-35.33Q-3.622-35.33 -2.782-34.54Q-1.9420000000000002-33.74 -1.9420000000000002-32.4L-1.9420000000000002-32.4Q-1.9420000000000002-31.06 -2.782-30.26Q-3.622-29.47 -4.822-29.47ZM 10.922-3.22L 10.922-3.22Q 13.652000000000001-3.22  14.972-3.94Q 16.292-4.66  16.292-6.24L 16.292-6.24Q 16.292-7.87  15.002-8.83Q 13.702-9.79  10.732000000000001-10.99L 10.732000000000001-10.99Q 9.292-11.57  7.972-12.17Q 6.652-12.77  5.692-13.58Q 4.732-14.4  4.152-15.55Q 3.572-16.7  3.572-18.38L 3.572-18.38Q 3.572-21.7  6.022-23.64Q 8.472000000000001-25.58  12.692-25.58L 12.692-25.58Q 13.752-25.58  14.812-25.46Q 15.862-25.34  16.772-25.18Q 17.692-25.01  18.381999999999998-24.82Q 19.082-24.62  19.462000000000003-24.48L 19.462000000000003-24.48L 18.652-20.64Q 17.932000000000002-21.02  16.392-21.43Q 14.852-21.84  12.692-21.84L 12.692-21.84Q 10.822000000000001-21.84  9.432-21.1Q 8.042-20.35  8.042-18.77L 8.042-18.77Q 8.042-17.95  8.352-17.33Q 8.661999999999999-16.7  9.312-16.2Q 9.962-15.7  10.922-15.26Q 11.882-14.83  13.222-14.35L 13.222-14.35Q 15.002-13.68  16.392-13.03Q 17.782000000000004-12.38  18.772-11.52Q 19.752000000000002-10.66  20.282000000000004-9.43Q 20.811999999999998-8.21  20.811999999999998-6.43L 20.811999999999998-6.43Q 20.811999999999998-2.98  18.241999999999997-1.2Q 15.672 0.58  10.922 0.58L 10.922 0.58Q 7.612 0.58  5.732 0.02Q 3.862-0.53  3.192-0.82L 3.192-0.82L 4.0120000000000005-4.66Q 4.772-4.37  6.452-3.79Q 8.132000000000001-3.22  10.922-3.22Z"
    ></path>
  </g>
</svg>
