<?xml version="1.0" encoding="UTF-8" standalone="no"?>
<svg
   xmlns:dc="http://purl.org/dc/elements/1.1/"
   xmlns:cc="http://creativecommons.org/ns#"
   xmlns:rdf="http://www.w3.org/1999/02/22-rdf-syntax-ns#"
   xmlns:svg="http://www.w3.org/2000/svg"
   xmlns="http://www.w3.org/2000/svg"
   xmlns:sodipodi="http://sodipodi.sourceforge.net/DTD/sodipodi-0.dtd"
   xmlns:inkscape="http://www.inkscape.org/namespaces/inkscape"
   width="685.03967"
   height="653.99915"
   viewBox="0 600 685.03967 653.99915"
   x="0"
   y="0"
   overflow="hidden"
   version="1.1"
   id="svg94"
   sodipodi:docname="docs_favicon.svg"
   inkscape:version="1.0.2 (e86c870879, 2021-01-15)">
  <metadata
     id="metadata100">
    <rdf:RDF>
      <cc:Work
         rdf:about="">
        <dc:format>image/svg+xml</dc:format>
        <dc:type
           rdf:resource="http://purl.org/dc/dcmitype/StillImage" />
        <dc:title />
      </cc:Work>
    </rdf:RDF>
  </metadata>
  <defs
     id="defs98" />
  <sodipodi:namedview
     pagecolor="#ffffff"
     bordercolor="#666666"
     borderopacity="1"
     objecttolerance="10"
     gridtolerance="10"
     guidetolerance="10"
     inkscape:pageopacity="0"
     inkscape:pageshadow="2"
     inkscape:window-width="1528"
     inkscape:window-height="836"
     id="namedview96"
     showgrid="false"
     inkscape:zoom="0.34522221"
     inkscape:cx="1184.9341"
     inkscape:cy="327.73613"
     inkscape:window-x="0"
     inkscape:window-y="0"
     inkscape:window-maximized="1"
     inkscape:current-layer="g92"
     inkscape:document-rotation="0" />
  <g
     transform="matrix(4,0,0,4,-59.332698,-73.00042)"
     id="g92">
    <g
       transform="matrix(1.3535981,0,0,1.3535981,-74.542237,-91.314832)"
       id="g88">
      <g
         transform="matrix(0.8765192,0,0,0.8765192,-96.652458,63.095959)"
         id="g84">
        <path
           fill="#78c0ff"
           transform="matrix(0.24547321,0.14752723,-0.09198401,0.15312415,275.15729,195.07397)"
           data-type="polygon"
           d="M 71.7,0 0,184.34 71.7,368.69 143.41,184.34 Z"
           id="path74" />
        <path
           fill="#96ceff"
           transform="matrix(0.24547321,0.14752723,-0.09198401,0.15312415,239.87241,215.75821)"
           data-type="polygon"
           d="M 71.7,0 0,184.34 71.7,368.69 143.41,184.34 Z"
           id="path76" />
        <path
           fill="#4c96d7"
           transform="matrix(0.24547321,0.14752723,-0.09198401,0.15312415,310.44214,176.82318)"
           data-type="polygon"
           d="M 71.7,0 0,184.34 71.7,368.69 143.41,184.34 Z"
           id="path78" />
        <path
           fill="#2f7bbd"
           transform="matrix(0.24547321,0.14752723,-0.09198401,0.15312415,273.94055,157.96404)"
           data-type="polygon"
           d="M 71.7,0 0,184.34 71.7,368.69 143.41,184.34 Z"
           id="path80" />
        <path
           fill="#5eb4ff"
           d="M 97.622,30.671 C 97.621,30.667 97.619,30.663 97.618,30.659 97.615,30.647 97.607,30.637 97.603,30.625 97.601,30.618 97.597,30.611 97.594,30.604 97.573,30.544 97.552,30.485 97.52,30.43 97.506,30.406 97.486,30.385 97.469,30.362 97.467,30.359 97.465,30.356 97.462,30.353 97.446,30.331 97.432,30.309 97.413,30.288 97.395,30.267 97.38,30.244 97.36,30.225 97.337,30.202 97.307,30.184 97.281,30.163 97.244,30.133 97.21,30.099 97.168,30.074 97.162,30.071 97.155,30.07 97.149,30.066 97.144,30.063 97.14,30.059 97.135,30.056 L 73.948,17.412 C 73.873,17.357 73.791,17.311 73.703,17.279 L 50.477,4.624 c -0.299,-0.163 -0.659,-0.163 -0.957,0 L 26.193,17.337 c -0.321,0.175 -0.521,0.512 -0.521,0.878 V 43.053 L 2.863,55.48 c -0.033,0.02 -0.06,0.045 -0.09,0.066 -0.027,0.02 -0.055,0.037 -0.08,0.059 -0.088,0.076 -0.164,0.164 -0.22,0.264 -0.003,0.004 -0.007,0.008 -0.01,0.012 -0.006,0.012 -0.006,0.025 -0.012,0.037 -0.045,0.092 -0.074,0.189 -0.09,0.291 -0.005,0.031 -0.01,0.059 -0.012,0.09 -0.002,0.02 -0.009,0.039 -0.009,0.061 v 25.426 c 0,0.367 0.2,0.703 0.521,0.879 l 23.33,12.713 c 0.047,0.025 0.097,0.039 0.146,0.057 0.027,0.01 0.052,0.023 0.079,0.031 0.084,0.021 0.168,0.033 0.253,0.033 v 0 h 0.001 c 0.085,0 0.17,-0.012 0.252,-0.033 0.003,0 0.006,0 0.009,-0.002 0.019,-0.004 0.035,-0.016 0.053,-0.021 0.01,-0.004 0.019,-0.008 0.028,-0.012 0.046,-0.018 0.093,-0.029 0.137,-0.053 L 97.135,57.237 c 0.321,-0.174 0.521,-0.512 0.521,-0.877 V 30.934 c 0.002,-0.09 -0.01,-0.179 -0.034,-0.263 z M 50.998,31.527 72.332,19.899 V 43.053 L 50.998,54.676 Z m 0,25.426 L 72.332,45.33 V 68.476 L 50.998,80.104 Z M 27.672,69.666 48.998,58.043 v 23.15 L 27.672,92.814 Z M 95.658,55.766 74.332,67.387 V 44.24 L 95.658,32.617 Z"
           transform="matrix(1.5143901,0,0,1.5143901,182.05464,139.97148)"
           id="path82" />
      </g>
    </g>
  </g>
</svg>
